<mxfile host="Electron" modified="2023-10-18T06:16:55.740Z" agent="Mozilla/5.0 (X11; Linux x86_64) AppleWebKit/537.36 (KHTML, like Gecko) draw.io/21.2.8 Chrome/116.0.5845.97 Electron/26.1.0 Safari/537.36" etag="HlpIthNA1--28UpNr0-1" version="21.2.8" type="device">
  <diagram id="5o1vi7zhXlaoLso9c_WA" name="第 1 页">
    <mxGraphModel dx="276" dy="174" grid="1" gridSize="10" guides="0" tooltips="1" connect="0" arrows="1" fold="1" page="1" pageScale="1" pageWidth="827" pageHeight="1169" math="0" shadow="0">
      <root>
        <mxCell id="0" />
        <mxCell id="1" parent="0" />
        <mxCell id="6" value="w/ TCache" style="edgeStyle=none;html=1;exitX=0.5;exitY=1;exitDx=0;exitDy=0;entryX=0.5;entryY=0;entryDx=0;entryDy=0;fontFamily=mono;align=center;" parent="1" source="2" target="3" edge="1">
          <mxGeometry relative="1" as="geometry" />
        </mxCell>
        <mxCell id="7" value="w/o TCache" style="edgeStyle=none;html=1;exitX=0.5;exitY=1;exitDx=0;exitDy=0;entryX=0.5;entryY=0;entryDx=0;entryDy=0;fontFamily=mono;align=center;" parent="1" source="2" target="4" edge="1">
          <mxGeometry relative="1" as="geometry" />
        </mxCell>
        <mxCell id="2" value="movabs $0x1234567890abcdef, %rax" style="rounded=0;whiteSpace=wrap;html=1;fillColor=#f5f5f5;fontColor=#333333;strokeColor=none;fontFamily=mono;align=left;" parent="1" vertex="1">
          <mxGeometry x="160" y="230" width="240" height="20" as="geometry" />
        </mxCell>
        <mxCell id="3" value="&lt;i&gt;&lt;u&gt;Transμtor&lt;/u&gt;&lt;/i&gt;" style="rounded=0;whiteSpace=wrap;html=1;fillColor=#f5f5f5;fontColor=#333333;strokeColor=none;fontFamily=mono;align=center;" parent="1" vertex="1">
          <mxGeometry x="140" y="290" width="120" height="20" as="geometry" />
        </mxCell>
        <mxCell id="4" value="&lt;i&gt;&lt;u&gt;Host&lt;/u&gt;&lt;/i&gt;" style="rounded=0;whiteSpace=wrap;html=1;strokeColor=none;fillColor=#f5f5f5;fontColor=#333333;fontFamily=mono;align=center;" parent="1" vertex="1">
          <mxGeometry x="280" y="290" width="150" height="20" as="geometry" />
        </mxCell>
        <mxCell id="10" value="limm imm0, %reg1" style="rounded=0;whiteSpace=wrap;html=1;fillColor=#f5f5f5;fontColor=#333333;strokeColor=none;fontFamily=mono;align=left;" parent="1" vertex="1">
          <mxGeometry x="140" y="310" width="120" height="60" as="geometry" />
        </mxCell>
        <mxCell id="11" value="movi&amp;nbsp; &amp;nbsp;0xcdef, %reg1&lt;br&gt;movi16 0x90ab, %reg1&lt;br&gt;movi32 0x5678, %reg1&lt;br&gt;movi48 0x1234, %reg1" style="rounded=0;whiteSpace=wrap;html=1;strokeColor=none;fillColor=#f5f5f5;fontColor=#333333;fontFamily=mono;align=left;" parent="1" vertex="1">
          <mxGeometry x="280" y="310" width="150" height="60" as="geometry" />
        </mxCell>
        <mxCell id="KtPXSwPWD70xqrMkPsjw-11" value="&lt;u&gt;&lt;i&gt;Guest&lt;/i&gt;&lt;/u&gt;" style="rounded=0;whiteSpace=wrap;html=1;fillColor=#f5f5f5;fontColor=#333333;strokeColor=none;fontFamily=mono;align=center;" parent="1" vertex="1">
          <mxGeometry x="160" y="210" width="240" height="20" as="geometry" />
        </mxCell>
        <mxCell id="O66Kc3pqF0T0PJ4UoYkf-11" value="" style="rounded=0;whiteSpace=wrap;html=1;fillColor=#f8cecc;strokeColor=#b85450;fontFamily=mono;" vertex="1" parent="1">
          <mxGeometry x="140" y="398" width="262" height="24" as="geometry" />
        </mxCell>
        <mxCell id="O66Kc3pqF0T0PJ4UoYkf-12" value="&lt;font style=&quot;font-size: 8px;&quot;&gt;Inst0: limm&lt;/font&gt;" style="rounded=0;whiteSpace=wrap;html=1;fontFamily=mono;" vertex="1" parent="1">
          <mxGeometry x="180" y="400" width="60" height="20" as="geometry" />
        </mxCell>
        <mxCell id="O66Kc3pqF0T0PJ4UoYkf-16" value="&lt;font style=&quot;font-size: 8px;&quot;&gt;Imm0:0x1234567890abcdef&lt;/font&gt;" style="rounded=0;whiteSpace=wrap;html=1;fontFamily=mono;" vertex="1" parent="1">
          <mxGeometry x="280" y="400" width="120" height="20" as="geometry" />
        </mxCell>
        <mxCell id="O66Kc3pqF0T0PJ4UoYkf-17" value="&lt;span style=&quot;border-color: var(--border-color);&quot;&gt;TCache Line&lt;/span&gt;" style="text;html=1;strokeColor=none;fillColor=none;align=center;verticalAlign=middle;whiteSpace=wrap;rounded=0;fontFamily=mono;" vertex="1" parent="1">
          <mxGeometry x="140" y="380" width="200" height="20" as="geometry" />
        </mxCell>
        <mxCell id="O66Kc3pqF0T0PJ4UoYkf-18" value="Meta" style="rounded=0;whiteSpace=wrap;html=1;fontFamily=mono;" vertex="1" parent="1">
          <mxGeometry x="142" y="400" width="38" height="20" as="geometry" />
        </mxCell>
        <mxCell id="O66Kc3pqF0T0PJ4UoYkf-19" value="..." style="rounded=0;whiteSpace=wrap;html=1;fillColor=none;strokeColor=none;fontFamily=mono;" vertex="1" parent="1">
          <mxGeometry x="240" y="400" width="40" height="20" as="geometry" />
        </mxCell>
        <mxCell id="O66Kc3pqF0T0PJ4UoYkf-20" value="" style="endArrow=classic;html=1;rounded=0;exitX=0.5;exitY=0;exitDx=0;exitDy=0;exitPerimeter=0;" edge="1" parent="1" source="O66Kc3pqF0T0PJ4UoYkf-16">
          <mxGeometry width="50" height="50" relative="1" as="geometry">
            <mxPoint x="300" y="320" as="sourcePoint" />
            <mxPoint x="195" y="350" as="targetPoint" />
          </mxGeometry>
        </mxCell>
      </root>
    </mxGraphModel>
  </diagram>
</mxfile>
